# xmcd
#
# Track frame offsets:
#	150
#	7722
#	16206
#	23232
#	31634
#	42594
#	50860
#	64019
#	71375
#	86349
#	100143
#	105656
#	111983
#	117943
#	124539
#	128474
#	137806
#	151290
#	185120
#	195787
#	202751
#	212099
#	234271
#	241314
#
# Disc length: 3330 seconds
#
# Revision: 0
# Processed by: cddbd v1.5.1PL0 Copyright (c) Steve Scherf et al.
# Submitted via: dBpowerAMP V4.0
#
DISCID=300d0018
DTITLE=¸t¸g-ÂÂ¬ù - Disc 37
DYEAR=1900
DGENRE=
TTITLE0=¸Ö½g²Ä1½g
TTITLE1=¸Ö½g²Ä2½g
TTITLE2=¸Ö½g²Ä3½g
TTITLE3=¸Ö½g²Ä4½g
TTITLE4=¸Ö½g²Ä5½g
TTITLE5=¸Ö½g²Ä6½g
TTITLE6=¸Ö½g²Ä7½g
TTITLE7=¸Ö½g²Ä8½g
TTITLE8=¸Ö½g²Ä9½g
TTITLE9=¸Ö½g²Ä10½g
TTITLE10=¸Ö½g²Ä11½g
TTITLE11=¸Ö½g²Ä12½g
TTITLE12=¸Ö½g²Ä13½g
TTITLE13=¸Ö½g²Ä14½g
TTITLE14=¸Ö½g²Ä15½g
TTITLE15=¸Ö½g²Ä16½g
TTITLE16=¸Ö½g²Ä17½g
TTITLE17=¸Ö½g²Ä18½g
TTITLE18=¸Ö½g²Ä19½g
TTITLE19=¸Ö½g²Ä20½g
TTITLE20=¸Ö½g²Ä21½g
TTITLE21=¸Ö½g²Ä22½g
TTITLE22=¸Ö½g²Ä23½g
TTITLE23=¸Ö½g²Ä24½g
EXTD=
EXTT0=
EXTT1=
EXTT2=
EXTT3=
EXTT4=
EXTT5=
EXTT6=
EXTT7=
EXTT8=
EXTT9=
EXTT10=
EXTT11=
EXTT12=
EXTT13=
EXTT14=
EXTT15=
EXTT16=
EXTT17=
EXTT18=
EXTT19=
EXTT20=
EXTT21=
EXTT22=
EXTT23=
PLAYORDER=
